<?xml version="1.0" encoding="iso-8859-1"?>
<!-- Generator: Adobe Illustrator 19.0.0, SVG Export Plug-In . SVG Version: 6.00 Build 0)  -->
<svg version="1.1" id="Capa_1" xmlns="http://www.w3.org/2000/svg" xmlns:xlink="http://www.w3.org/1999/xlink" x="0px" y="0px"
	 viewBox="0 0 421.094 421.094" style="enable-background:new 0 0 421.094 421.094;" xml:space="preserve">
<g>
	<polygon style="fill:#4DCFE0;" points="320.784,299.363 320.784,405.42 100.31,405.42 100.31,299.363 210.547,212.114 	"/>
	<polygon style="fill:#4DCFE0;" points="320.784,15.673 320.784,116.506 210.547,203.755 100.31,116.506 100.31,15.673 	"/>
</g>
<path style="fill:#3A2C51;" d="M368.849,389.747h-32.392v-90.384c0-4.702-2.09-9.404-5.747-12.539l-100.31-78.89l100.31-78.89
	c3.657-3.135,5.747-7.314,5.747-12.539V31.347h32.392c8.882,0,15.673-6.792,15.673-15.673S377.731,0,368.849,0H52.245
	c-8.882,0-15.673,6.792-15.673,15.673s6.792,15.673,15.673,15.673h32.392v85.159c0,4.702,2.09,9.404,5.747,12.539l99.788,78.89
	l-99.788,78.89c-3.657,3.135-5.747,7.314-5.747,12.539v90.384H52.245c-8.882,0-15.673,6.792-15.673,15.673
	s6.792,15.673,15.673,15.673h316.604c8.882,0,15.673-6.792,15.673-15.673S377.731,389.747,368.849,389.747z M115.984,31.347H305.11
	v77.322l-94.563,75.233l-94.563-75.233V31.347z M115.984,307.2l94.563-75.233l94.563,74.71v82.547H115.984V307.2z"/>
<g>
</g>
<g>
</g>
<g>
</g>
<g>
</g>
<g>
</g>
<g>
</g>
<g>
</g>
<g>
</g>
<g>
</g>
<g>
</g>
<g>
</g>
<g>
</g>
<g>
</g>
<g>
</g>
<g>
</g>
</svg>
