Open SVG
Paste markup
Demo
Contribute

    About

Powered by the incredible SVGO
717 bytes → 402 bytes 56.07%

<svg xmlns="http://www.w3.org/2000/svg" viewBox="0 0 512.001 512.001"><path d="M133.137 68.673l-17.6-26.736a257.947 257.947 0 00-27.2 20.576l20.976 24.16a226.834 226.834 0 0123.824-18z"/><path d="M256.001.001a253.662 253.662 0 00-110.784 25.152l13.856 28.8a221.731 221.731 0 0196.928-21.952c123.712 0 224 100.288 224 224s-100.288 224-224 224-224-100.288-224-224a221.75 221.75 0 0122.928-98.848l-28.704-14.144A253.438 253.438 0 00.001 256.001c0 141.385 114.615 256 256 256s256-114.615 256-256-114.615-256-256-256z"/><path d="M88.113 107.681l-24-21.2a259.03 259.03 0 00-20.8 26.992l26.576 17.84a224.343 224.343 0 0118.224-23.632zM372.689 116.689L256.001 233.377 139.313 116.689l-22.624 22.624 116.688 116.688-116.688 116.688 22.624 22.624 116.688-116.688 116.688 116.688 22.624-22.624-116.688-116.688 116.688-116.688z"/></svg>

