<svg viewBox="0 0 480.653 480.653" xmlns="http://www.w3.org/2000/svg"><path d="M107.344 76.8h265.927v302.498H107.344z" fill="#d4e1f4"/><path d="M373.27 47.02V76.8H107.344V47.02c0-17.241 14.106-31.347 31.347-31.347h203.233c17.24 0 31.346 14.107 31.346 31.347zM373.27 433.633c.522 17.241-13.584 31.347-30.824 31.347H138.691c-17.241 0-31.347-14.106-31.347-31.347v-54.335H373.27z" fill="#4dcfe0"/><g fill="#3a2c51"><path d="M341.923 0H138.691c-26.122 0-47.02 20.898-47.02 47.02v386.612c0 26.122 20.898 47.02 47.02 47.02h203.755c12.539 0 24.555-5.224 33.437-14.106s13.584-20.898 13.061-32.914V47.02c0-26.122-20.898-47.02-47.021-47.02zm15.674 363.624h-234.58V92.473h234.58zM138.691 31.347h203.233c8.882 0 15.673 6.792 15.673 15.673v14.106h-234.58V47.02c0-8.881 6.792-15.673 15.674-15.673zm214.726 413.257c-3.135 3.135-6.792 4.702-10.971 4.702H138.691c-8.882 0-15.673-6.792-15.673-15.673v-38.661h234.58v39.184c-.001 3.656-1.569 7.836-4.181 10.448z"/><path d="M253.629 437.29h-26.122c-8.882 0-15.673-6.792-15.673-15.673s6.792-15.673 15.673-15.673h26.122c8.882 0 15.673 6.792 15.673 15.673s-6.791 15.673-15.673 15.673z"/></g></svg>